<?xml version="1.0" encoding="utf-8"?>
<!-- Generator: Adobe Illustrator 26.0.2, SVG Export Plug-In . SVG Version: 6.00 Build 0)  -->
<svg version="1.1" id="Layer_1" xmlns="http://www.w3.org/2000/svg" xmlns:xlink="http://www.w3.org/1999/xlink" x="0px" y="0px"
	 viewBox="0 0 428 177.8" style="enable-background:new 0 0 428 177.8;" xml:space="preserve">
<style type="text/css">
	.st0{fill:#929497;}
	.st1{fill:url(#SVGID_1_);}
	.st2{fill:#003C69;}
	.st3{fill:url(#SVGID_00000050662752628916862170000014400645400483606936_);}
	.st4{fill:url(#SVGID_00000170269521513528535210000017573523892509225872_);}
	.st5{fill:url(#SVGID_00000053543124697842533790000006802661231505666463_);}
</style>
<g>
	<g>
		<g>
			<path class="st0" d="M11,169.7c2.4,1.8,5.4,2.6,7.7,2.6c3,0,5.2-1.4,5.2-4.1c0-3.3-3-3.8-6.3-4.8c-3.6-1-7.1-2.5-7.1-7.1
				c0-4.5,3.3-7.1,8.2-7.1c2.4,0,5.3,0.6,7.3,1.9v3.5c-2.3-1.6-5.2-2.4-7.4-2.4c-2.8,0-4.8,1.2-4.8,3.8c0,3.2,2.9,3.7,6,4.6
				c3.7,1.1,7.3,2.5,7.3,7.4c0,4.6-3.4,7.4-8.5,7.4c-2.5,0-5.4-0.7-7.6-2V169.7z"/>
			<path class="st0" d="M68.8,149.2c7.4,0,12.9,5.7,12.9,13.1c0,7.4-5.5,13.1-12.9,13.1c-7.4,0-12.9-5.7-12.9-13.1
				C55.9,154.9,61.4,149.2,68.8,149.2z M68.8,172.3c5.5,0,9.6-4.4,9.6-10c0-5.6-4-10-9.6-10s-9.6,4.4-9.6,10
				C59.2,167.9,63.2,172.3,68.8,172.3z"/>
			<path class="st0" d="M111.9,149.6h3.3V172h12v3h-15.3V149.6z"/>
			<path class="st0" d="M156.8,163v-13.4h3.3v13.1c0,3.1,0.2,5.1,1,6.6c0.9,1.6,2.7,3.1,6,3.1c3.1,0,5-1.2,6-3.1
				c0.8-1.5,0.9-3.5,0.9-6.4v-13.2h3.2v13.1c0,3.7-0.2,6.5-1.7,8.8c-1.6,2.5-4.7,4-8.6,4c-4,0-6.9-1.5-8.5-4
				C157,169.1,156.8,166.2,156.8,163z"/>
			<path class="st0" d="M215,152.6h-8.5v-3h20.4v3h-8.5V175H215V152.6z"/>
			<path class="st0" d="M256.4,149.6h3.3V175h-3.3V149.6z"/>
			<path class="st0" d="M302.8,149.2c7.4,0,12.9,5.7,12.9,13.1c0,7.4-5.5,13.1-12.9,13.1c-7.4,0-12.9-5.7-12.9-13.1
				C289.9,154.9,295.4,149.2,302.8,149.2z M302.8,172.3c5.5,0,9.6-4.4,9.6-10c0-5.6-4-10-9.6-10c-5.5,0-9.6,4.4-9.6,10
				C293.2,167.9,297.3,172.3,302.8,172.3z"/>
			<path class="st0" d="M345.9,175v-25.4h3.2l10.6,14.1c1.5,1.9,2.9,3.9,4.4,5.9l0.1,0c0-2.2-0.1-4.8-0.1-7.2v-12.8h3.2V175h-3.2
				l-10.6-14.1c-1.5-1.9-2.9-3.9-4.4-5.9l-0.1,0c0,2.2,0.1,4.8,0.1,7.2V175H345.9z"/>
			<path class="st0" d="M398.2,169.7c2.4,1.8,5.4,2.6,7.7,2.6c3,0,5.2-1.4,5.2-4.1c0-3.3-3-3.8-6.3-4.8c-3.6-1-7.1-2.5-7.1-7.1
				c0-4.5,3.3-7.1,8.2-7.1c2.4,0,5.3,0.6,7.3,1.9v3.5c-2.3-1.6-5.2-2.4-7.4-2.4c-2.8,0-4.8,1.2-4.8,3.8c0,3.2,2.9,3.7,6,4.6
				c3.7,1.1,7.3,2.5,7.3,7.4c0,4.6-3.4,7.4-8.5,7.4c-2.5,0-5.4-0.7-7.6-2V169.7z"/>
		</g>
	</g>
	<linearGradient id="SVGID_1_" gradientUnits="userSpaceOnUse" x1="282.8041" y1="38.7068" x2="327.5142" y2="38.7068">
		<stop  offset="0" style="stop-color:#26A9E0"/>
		<stop  offset="1" style="stop-color:#003C69"/>
	</linearGradient>
	<path class="st1" d="M352.8,65.8V53.2c0-4.3-2.3-8.4-6.3-11.5L294.8,3c-1.5-1.1-4-0.3-4,1.2V39c0,3.5,2,6.9,5.5,9.2l36.1,24.3
		C340.2,77.9,352.8,73.7,352.8,65.8z"/>
	<path class="st2" d="M5.9,118V23.3c0-11.5,9.3-20.8,20.8-20.8h85.7c19.3,0,28.9,8.3,28.9,24.9v30.2c0,16.6-9.6,24.9-28.9,24.9H87.4
		l54.2,48.6h-36.8L52.9,82.5H31.7v48.6H15.3C8.1,131.1,5.9,125.3,5.9,118z M99,24.4H40.4c-4.8,0-8.7,3.9-8.7,8.7v27.4H99
		c4.7,0,7.9-0.5,9.7-1.5c2.5-1.5,3.7-4.4,3.7-8.8V34.7c0-4.3-1.2-7.3-3.7-8.8C106.9,24.9,103.6,24.4,99,24.4z"/>
	<path class="st2" d="M155.5,122V23.8c0-11.8,9.6-21.4,21.4-21.4h101.5c1.8,0,3.2,1.4,3.2,3.2v16c0,1.8-1.4,3.2-3.2,3.2h-87.1
		c-5.5,0-10,4.5-10,10v23.9H232c1.9,0,3.4,1.5,3.4,3.4v13.6c0,1.9-1.5,3.4-3.4,3.4h-50.7v51.8h-16.8
		C159.6,131.1,155.5,127,155.5,122z"/>
	
		<linearGradient id="SVGID_00000180355915782554573570000013782620987480538789_" gradientUnits="userSpaceOnUse" x1="352.772" y1="86.5195" x2="290.8125" y2="86.5195">
		<stop  offset="0" style="stop-color:#26A9E0"/>
		<stop  offset="1" style="stop-color:#003C69"/>
	</linearGradient>
	<path style="fill:url(#SVGID_00000180355915782554573570000013782620987480538789_);" d="M352.8,50.5c0,2.1,0,32,0,32
		c0,2.4-1.3,4.8-3.6,6.5l-54.4,40.8c-1.5,1.1-4,0.3-4-1.2V93.8c0-3.5,2-6.9,5.5-9.2c0,0,50.6-33.9,52.5-35.3
		c3.6-2.7-1.3-6.5-1.3-6.5S352.8,46.6,352.8,50.5z"/>
	
		<linearGradient id="SVGID_00000168831696693492740270000014749989382805431203_" gradientUnits="userSpaceOnUse" x1="428.8601" y1="38.7068" x2="473.5702" y2="38.7068" gradientTransform="matrix(-1 0 0 1 858.9187 0)">
		<stop  offset="0" style="stop-color:#26A9E0"/>
		<stop  offset="1" style="stop-color:#003C69"/>
	</linearGradient>
	<path style="fill:url(#SVGID_00000168831696693492740270000014749989382805431203_);" d="M360.1,65.8V53.2c0-4.3,2.3-8.4,6.3-11.5
		L418,3c1.5-1.1,4-0.3,4,1.2V39c0,3.5-2,6.9-5.5,9.2l-36.1,24.3C372.6,77.9,360.1,73.7,360.1,65.8z"/>
	
		<linearGradient id="SVGID_00000173120511756630607020000015848061656812400303_" gradientUnits="userSpaceOnUse" x1="498.828" y1="86.5195" x2="436.8685" y2="86.5195" gradientTransform="matrix(-1 0 0 1 858.9187 0)">
		<stop  offset="0" style="stop-color:#26A9E0"/>
		<stop  offset="1" style="stop-color:#003C69"/>
	</linearGradient>
	<path style="fill:url(#SVGID_00000173120511756630607020000015848061656812400303_);" d="M360.1,50.5c0,2.1,0,32,0,32
		c0,2.4,1.3,4.8,3.6,6.5l54.4,40.8c1.5,1.1,4,0.3,4-1.2V93.8c0-3.5-2-6.9-5.5-9.2c0,0-50.6-33.9-52.5-35.3c-3.6-2.7,1.3-6.5,1.3-6.5
		S360.1,46.6,360.1,50.5z"/>
</g>
</svg>
